<svg xmlns="http://www.w3.org/2000/svg" width="1156.782" height="580.813" viewBox="0 0 1156.782 580.813">
  <metadata><?xpacket begin="﻿" id="W5M0MpCehiHzreSzNTczkc9d"?>
<x:xmpmeta xmlns:x="adobe:ns:meta/" x:xmptk="Adobe XMP Core 5.6-c138 79.159824, 2016/09/14-01:09:01        ">
   <rdf:RDF xmlns:rdf="http://www.w3.org/1999/02/22-rdf-syntax-ns#">
      <rdf:Description rdf:about=""/>
   </rdf:RDF>
</x:xmpmeta>
                                                                                                    
                                                                                                    
                                                                                                    
                                                                                                    
                                                                                                    
                                                                                                    
                                                                                                    
                                                                                                    
                                                                                                    
                                                                                                    
                                                                                                    
                                                                                                    
                                                                                                    
                                                                                                    
                                                                                                    
                                                                                                    
                                                                                                    
                                                                                                    
                                                                                                    
                                                                                                    
                           
<?xpacket end="w"?></metadata>
<defs>
    <style>
      .cls-1 {
        fill: #eaf3e7;
        fill-rule: evenodd;
      }
    </style>
  </defs>
  <path id="Shape_14_copy" data-name="Shape 14 copy" class="cls-1" d="M134.6,273.191A2.4,2.4,0,1,1,132.2,275.6,2.405,2.405,0,0,1,134.6,273.191ZM536.928,118.5a0.252,0.252,0,1,1-.252.252A0.252,0.252,0,0,1,536.928,118.5Zm96.746,24.164a4.17,4.17,0,1,1-4.17,4.17A4.17,4.17,0,0,1,633.674,142.66Zm-157.461,9.656a2.842,2.842,0,1,1-2.842,2.842A2.843,2.843,0,0,1,476.213,152.316ZM551.1,163.859a1.9,1.9,0,1,1-1.9,1.9A1.9,1.9,0,0,1,551.1,163.859ZM227.6,320.348a1.4,1.4,0,1,1-1.405,1.4A1.4,1.4,0,0,1,227.6,320.348ZM162.42,374.52a3.24,3.24,0,1,1-3.24,3.24A3.24,3.24,0,0,1,162.42,374.52ZM645.1,172.7c1.6,0,2.9,1.635,2.9,3.653S646.7,180,645.1,180s-2.9-1.635-2.9-3.652S643.492,172.7,645.1,172.7ZM797.3,163.156a4.422,4.422,0,1,1-4.422,4.422A4.422,4.422,0,0,1,797.3,163.156ZM525.266,220.383a2.309,2.309,0,1,1-2.309,2.308A2.308,2.308,0,0,1,525.266,220.383ZM901.492,68.941a0.508,0.508,0,1,1-.508.508A0.508,0.508,0,0,1,901.492,68.941Zm283.5,511.191a0.255,0.255,0,1,1,.2.3A0.255,0.255,0,0,1,1184.99,580.132Zm42.8-90.065a4.172,4.172,0,1,1,3.27,4.911A4.174,4.174,0,0,1,1227.79,490.067Zm-21.64,156.265a2.841,2.841,0,1,1,2.23,3.347A2.844,2.844,0,0,1,1206.15,646.332ZM1259.49,484.8c0.32-1.573,2.18-2.524,4.16-2.126s3.32,2,3,3.569-2.17,2.524-4.15,2.125S1259.18,486.376,1259.49,484.8Zm20.72-151.09a4.422,4.422,0,1,1,3.46,5.208A4.42,4.42,0,0,1,1280.21,333.714Zm2.36,277.979a2.306,2.306,0,1,1,1.8,2.719A2.308,2.308,0,0,1,1282.57,611.693Zm-74.13-398.73a0.505,0.505,0,1,1,.99.2A0.505,0.505,0,1,1,1208.44,212.963Z" transform="translate(-132.188 -68.938)"/>
</svg>
